<svg width="400" height="181" viewBox="0 0 400 181" fill="none" xmlns="http://www.w3.org/2000/svg">
<rect width="400" height="180.461" fill="#1E1E1E"/>
<g clip-path="url(#clip0_1_24)">
<path d="M61.0478 68.459L40 89.7857L61.0467 111.11C62.9667 113.056 66.08 113.056 68 111.112C69.9211 109.168 69.9222 106.016 68.0022 104.07L54.6589 90.5568L50.6322 93.1001L68.0033 75.499C68.9633 74.5268 69.4422 73.2535 69.4422 71.979C69.4422 70.7046 68.9611 69.429 68.0011 68.4568C66.0811 66.5135 62.9678 66.5146 61.0478 68.459Z" fill="#EB8102"/>
<path d="M118.952 68.4601L140 89.7857L118.953 111.11C117.033 113.056 113.92 113.056 112 111.112C110.079 109.168 110.078 106.016 111.998 104.07L125.341 90.5579L129.368 93.1012L111.996 75.5001C111.036 74.5279 110.557 73.2546 110.557 71.9801C110.557 70.7057 111.038 69.4301 111.998 68.4579C113.919 66.5135 117.032 66.5146 118.952 68.4601Z" fill="#EB8102"/>
<path d="M102.11 70.1757C101.644 68.989 100.731 67.9779 99.4811 67.4246C96.9822 66.3168 94.0844 67.4557 93.0089 69.9668L77.6533 105.591C77.1156 106.847 77.1344 108.208 77.6 109.393C78.0656 110.58 78.9789 111.591 80.2289 112.145C82.7278 113.252 85.6256 112.113 86.7011 109.602L102.057 73.9779C102.594 72.7224 102.576 71.3612 102.11 70.1757Z" fill="#EB8102"/>
<path d="M160 82.3537C160 73.8475 166.847 67 175.354 67C179.649 67 182.754 68.4461 185.646 70.9554C186.029 71.2956 186.029 71.806 185.689 72.1463L183.817 74.0601C183.52 74.4429 183.137 74.4429 182.754 74.0601C180.755 72.3164 178.033 71.2106 175.396 71.2106C169.314 71.2106 164.721 76.3143 164.721 82.2686C164.721 88.223 169.357 93.2842 175.439 93.2842C178.544 93.2842 180.713 92.0508 182.754 90.4771C183.137 90.1794 183.52 90.2219 183.775 90.4346L185.731 92.3485C186.072 92.6462 185.986 93.1991 185.689 93.4968C182.797 96.3039 179.139 97.6223 175.354 97.6223C166.847 97.6223 160 90.8599 160 82.3537V82.3537ZM196.069 82.3537C196.069 73.8475 202.832 67 211.338 67C219.844 67 226.649 73.8475 226.649 82.3537C226.649 90.8599 219.844 97.6223 211.338 97.6223C202.832 97.6223 196.069 90.8599 196.069 82.3537V82.3537ZM200.323 82.3537C200.323 88.4356 205.299 93.3692 211.338 93.3692C217.42 93.3692 222.396 88.4356 222.396 82.3537C222.396 76.3143 217.42 71.2531 211.338 71.2531C205.299 71.2531 200.323 76.3143 200.323 82.3537ZM239.199 96.3889V68.2334C239.199 67.8081 239.539 67.4253 239.965 67.4253H249.747C257.955 67.4253 264.675 74.1027 264.675 82.2686C264.675 90.5197 257.955 97.197 249.747 97.197H239.965C239.539 97.197 239.199 96.8142 239.199 96.3889V96.3889ZM243.537 93.1566H249.151C255.403 93.1566 259.954 88.5632 259.954 82.2686C259.954 76.0166 255.403 71.4658 249.151 71.4658H243.537V93.1566ZM277.268 96.3889V68.2334C277.268 67.8081 277.608 67.4253 278.076 67.4253H295.088C295.556 67.4253 295.896 67.8081 295.896 68.2334V70.6151C295.896 71.0404 295.556 71.4232 295.088 71.4232H281.648V80.0996H293.004C293.429 80.0996 293.812 80.4823 293.812 80.9076V83.2894C293.812 83.7572 293.429 84.0975 293.004 84.0975H281.648V93.2416H295.088C295.556 93.2416 295.896 93.6244 295.896 94.0497V96.3889C295.896 96.8142 295.556 97.197 295.088 97.197H278.076C277.608 97.197 277.268 96.8142 277.268 96.3889V96.3889ZM306.575 94.6877C306.575 93.029 307.893 91.7105 309.509 91.7105C311.168 91.7105 312.486 93.029 312.486 94.6877C312.486 96.3039 311.168 97.6223 309.509 97.6223C307.893 97.6223 306.575 96.3039 306.575 94.6877ZM324.611 96.3889V68.2334C324.611 67.8081 324.994 67.4253 325.419 67.4253H328.226C328.651 67.4253 329.034 67.8081 329.034 68.2334V96.3889C329.034 96.8142 328.651 97.197 328.226 97.197H325.419C324.994 97.197 324.611 96.8142 324.611 96.3889ZM347.836 96.3889V71.4232H340.904C340.436 71.4232 340.095 71.0404 340.095 70.6151V68.2334C340.095 67.8081 340.436 67.4253 340.904 67.4253H359.192C359.66 67.4253 360 67.8081 360 68.2334V70.6151C360 71.0404 359.66 71.4232 359.192 71.4232H352.259V96.3889C352.259 96.8142 351.877 97.197 351.451 97.197H348.644C348.219 97.197 347.836 96.8142 347.836 96.3889Z" fill="white"/>
<path d="M163.385 112.276C163.453 112.276 163.499 112.321 163.499 112.389V113.235C163.499 113.302 163.453 113.348 163.385 113.348H160.113C160.045 113.348 160 113.302 160 113.235V108.177C160 108.109 160.045 108.064 160.113 108.064H161.106C161.174 108.064 161.219 108.109 161.219 108.177V112.276H163.385V112.276ZM170.866 112.276C170.934 112.276 170.979 112.321 170.979 112.389V113.235C170.979 113.302 170.934 113.348 170.866 113.348H167.556C167.488 113.348 167.443 113.302 167.443 113.235V108.177C167.443 108.109 167.488 108.064 167.556 108.064H170.859C170.927 108.064 170.972 108.109 170.972 108.177V109.023C170.972 109.091 170.927 109.136 170.859 109.136H168.662V110.151H170.674C170.742 110.151 170.787 110.196 170.787 110.264V111.11C170.787 111.178 170.742 111.223 170.674 111.223H168.662V112.276H170.866V112.276ZM178.838 108.064C178.906 108.064 178.951 108.109 178.951 108.177V109.023C178.951 109.091 178.906 109.136 178.838 109.136H177.471V113.235C177.471 113.302 177.426 113.348 177.358 113.348H176.366C176.298 113.348 176.252 113.302 176.252 113.235V109.136H174.886C174.818 109.136 174.773 109.091 174.773 109.023V108.177C174.773 108.109 174.818 108.064 174.886 108.064H178.838V108.064ZM192.527 108.064C192.595 108.064 192.641 108.109 192.641 108.177V109.023C192.641 109.091 192.595 109.136 192.527 109.136H191.161V113.235C191.161 113.302 191.116 113.348 191.048 113.348H190.055C189.988 113.348 189.942 113.302 189.942 113.235V109.136H188.576C188.508 109.136 188.463 109.091 188.463 109.023V108.177C188.463 108.109 188.508 108.064 188.576 108.064H192.527V108.064ZM200.914 108.064C200.982 108.064 201.027 108.109 201.027 108.177V113.235C201.027 113.302 200.982 113.348 200.914 113.348H199.918C199.85 113.348 199.805 113.302 199.805 113.235V111.223H197.785V113.235C197.785 113.302 197.74 113.348 197.672 113.348H196.68C196.612 113.348 196.566 113.302 196.566 113.235V108.177C196.566 108.109 196.612 108.064 196.68 108.064H197.672C197.74 108.064 197.785 108.109 197.785 108.177V110.151H199.805V108.177C199.805 108.109 199.85 108.064 199.918 108.064H200.914V108.064ZM208.659 112.276C208.727 112.276 208.772 112.321 208.772 112.389V113.235C208.772 113.302 208.727 113.348 208.659 113.348H205.349C205.281 113.348 205.236 113.302 205.236 113.235V108.177C205.236 108.109 205.281 108.064 205.349 108.064H208.652C208.719 108.064 208.765 108.109 208.765 108.177V109.023C208.765 109.091 208.719 109.136 208.652 109.136H206.455V110.151H208.467C208.535 110.151 208.58 110.196 208.58 110.264V111.11C208.58 111.178 208.535 111.223 208.467 111.223H206.455V112.276H208.659V112.276ZM222.564 111.846L223.175 112.506C223.221 112.559 223.232 112.612 223.179 112.665C222.719 113.136 222.043 113.446 221.307 113.446C219.794 113.446 218.567 112.25 218.567 110.729C218.567 109.2 219.794 108.004 221.307 108.004C222.043 108.004 222.719 108.306 223.179 108.785C223.232 108.842 223.221 108.891 223.175 108.944L222.564 109.604C222.523 109.657 222.458 109.657 222.406 109.612C222.115 109.362 221.749 109.2 221.296 109.2C220.473 109.2 219.828 109.857 219.828 110.729C219.828 111.593 220.473 112.25 221.296 112.25C221.749 112.25 222.115 112.087 222.406 111.838C222.458 111.793 222.523 111.793 222.564 111.846V111.846ZM229.785 113.446C228.29 113.446 227.063 112.238 227.063 110.729C227.063 109.211 228.29 108.004 229.785 108.004C231.283 108.004 232.513 109.211 232.513 110.729C232.513 112.238 231.283 113.446 229.785 113.446ZM229.785 112.265C230.626 112.265 231.287 111.589 231.287 110.729C231.287 109.861 230.626 109.185 229.785 109.185C228.95 109.185 228.29 109.861 228.29 110.729C228.29 111.589 228.95 112.265 229.785 112.265ZM238.296 108.064C240.1 108.064 241.07 109.242 241.07 110.706C241.07 112.17 240.1 113.348 238.296 113.348H236.684C236.616 113.348 236.571 113.302 236.571 113.235V108.177C236.571 108.109 236.616 108.064 236.684 108.064H238.296V108.064ZM238.296 112.276C239.318 112.276 239.832 111.71 239.832 110.706C239.832 109.702 239.318 109.136 238.296 109.136H237.79V112.276H238.296ZM248.418 112.276C248.486 112.276 248.532 112.321 248.532 112.389V113.235C248.532 113.302 248.486 113.348 248.418 113.348H245.109C245.041 113.348 244.995 113.302 244.995 113.235V108.177C244.995 108.109 245.041 108.064 245.109 108.064H248.411C248.479 108.064 248.524 108.109 248.524 108.177V109.023C248.524 109.091 248.479 109.136 248.411 109.136H246.214V110.151H248.226C248.294 110.151 248.339 110.196 248.339 110.264V111.11C248.339 111.178 248.294 111.223 248.226 111.223H246.214V112.276H248.418V112.276ZM261.214 110.529C261.897 110.657 262.286 111.106 262.286 111.827C262.286 112.85 261.753 113.348 260.349 113.348H258.496C258.429 113.348 258.383 113.302 258.383 113.235V108.177C258.383 108.109 258.429 108.064 258.496 108.064H260.436C261.535 108.064 262.01 108.672 262.01 109.438C262.01 109.993 261.727 110.389 261.214 110.529V110.529ZM260.878 109.596C260.878 109.249 260.719 109.136 260.323 109.136H259.602V110.095H260.308C260.731 110.095 260.878 109.962 260.878 109.596V109.596ZM260.399 112.276C260.878 112.276 261.07 112.08 261.07 111.691C261.07 111.253 260.848 111.098 260.387 111.098H259.602V112.276H260.399ZM269.653 112.276C269.721 112.276 269.766 112.321 269.766 112.389V113.235C269.766 113.302 269.721 113.348 269.653 113.348H266.343C266.275 113.348 266.23 113.302 266.23 113.235V108.177C266.23 108.109 266.275 108.064 266.343 108.064H269.646C269.714 108.064 269.759 108.109 269.759 108.177V109.023C269.759 109.091 269.714 109.136 269.646 109.136H267.449V110.151H269.461C269.529 110.151 269.574 110.196 269.574 110.264V111.11C269.574 111.178 269.529 111.223 269.461 111.223H267.449V112.276H269.653V112.276ZM278.719 110.306C278.787 110.306 278.832 110.351 278.832 110.419V110.959C278.832 112.31 277.961 113.446 276.458 113.446C274.945 113.446 273.692 112.231 273.692 110.717C273.692 109.2 274.919 108.004 276.432 108.004C277.168 108.004 277.844 108.306 278.304 108.785C278.357 108.842 278.345 108.891 278.3 108.944L277.689 109.604C277.647 109.657 277.583 109.657 277.53 109.612C277.24 109.362 276.874 109.2 276.421 109.2C275.598 109.2 274.953 109.857 274.953 110.717C274.953 111.578 275.56 112.25 276.447 112.25C277.221 112.25 277.606 111.8 277.628 111.317H276.481C276.413 111.317 276.368 111.272 276.368 111.204V110.419C276.368 110.351 276.413 110.306 276.481 110.306H278.719V110.306ZM286.521 109.136H285.324V112.276H286.521C286.589 112.276 286.634 112.321 286.634 112.389V113.235C286.634 113.302 286.589 113.348 286.521 113.348H282.909C282.841 113.348 282.796 113.302 282.796 113.235V112.389C282.796 112.321 282.841 112.276 282.909 112.276H284.105V109.136H282.909C282.841 109.136 282.796 109.091 282.796 109.023V108.177C282.796 108.109 282.841 108.064 282.909 108.064H286.521C286.589 108.064 286.634 108.109 286.634 108.177V109.023C286.634 109.091 286.589 109.136 286.521 109.136ZM295.021 108.064C295.088 108.064 295.134 108.109 295.134 108.177V113.235C295.134 113.302 295.088 113.348 295.021 113.348H293.903C293.843 113.348 293.798 113.325 293.768 113.272L291.967 110.038V113.235C291.967 113.302 291.922 113.348 291.854 113.348H290.862C290.794 113.348 290.748 113.302 290.748 113.235V108.177C290.748 108.109 290.794 108.064 290.862 108.064H291.975C292.035 108.064 292.081 108.087 292.111 108.14L293.911 111.37V108.177C293.911 108.109 293.956 108.064 294.024 108.064H295.021V108.064ZM301.037 110.151C302.03 110.336 303.075 110.683 303.075 111.842C303.075 112.97 302.396 113.461 301.064 113.461C299.822 113.461 299.21 113.038 299.116 111.982C299.109 111.906 299.154 111.857 299.222 111.857H300.131C300.199 111.857 300.226 111.899 300.245 111.959C300.343 112.231 300.584 112.363 301.064 112.363C301.569 112.363 301.882 112.219 301.882 111.883C301.882 111.532 301.769 111.344 301.037 111.2C300.101 111.015 299.195 110.627 299.195 109.562C299.195 108.589 299.788 108 301.037 108C302.15 108 302.815 108.411 302.917 109.43C302.924 109.506 302.879 109.566 302.811 109.566H301.969C301.901 109.566 301.875 109.513 301.856 109.453C301.784 109.234 301.547 109.087 301.056 109.087C300.607 109.087 300.38 109.283 300.38 109.562C300.38 109.789 300.365 110.023 301.037 110.151V110.151ZM313.61 113.446C313.161 113.446 312.795 113.08 312.795 112.631C312.795 112.185 313.161 111.819 313.61 111.819C314.055 111.819 314.425 112.185 314.425 112.631C314.425 113.08 314.055 113.446 313.61 113.446ZM319.185 113.446C318.736 113.446 318.37 113.08 318.37 112.631C318.37 112.185 318.736 111.819 319.185 111.819C319.63 111.819 320 112.185 320 112.631C320 113.08 319.63 113.446 319.185 113.446Z" fill="#EB8102"/>
</g>
<defs>
<clipPath id="clip0_1_24">
<rect width="320" height="46.461" fill="white" transform="translate(40 67)"/>
</clipPath>
</defs>
</svg>
